<svg xmlns="http://www.w3.org/2000/svg" width="228" height="251" viewBox="0 0 228 251" fill="none">
  <path d="M109.957 251C159.399 251 199.479 243.143 199.479 233.451C199.479 223.759 159.399 215.902 109.957 215.902C60.515 215.902 20.4346 223.759 20.4346 233.451C20.4346 243.143 60.515 251 109.957 251Z" fill="#4C6ED7"/>
  <path opacity="0.5" d="M109.957 251C159.399 251 199.479 243.143 199.479 233.451C199.479 223.759 159.399 215.902 109.957 215.902C60.515 215.902 20.4346 223.759 20.4346 233.451C20.4346 243.143 60.515 251 109.957 251Z" fill="#153AAC"/>
  <path d="M204.994 6.10352e-05H140.446C138.241 6.10352e-05 136.454 1.75218 136.454 3.91352V73.6613C136.454 75.8227 138.241 77.5748 140.446 77.5748H204.994C207.199 77.5748 208.987 75.8227 208.987 73.6613V3.91352C208.987 1.75218 207.199 6.10352e-05 204.994 6.10352e-05Z" fill="white"/>
  <path d="M140.446 4.89248e-05H204.988C206.041 4.89248e-05 207.052 0.410307 207.797 1.14057C208.542 1.87084 208.96 2.86128 208.96 3.89403V7.95676H136.454V3.91351C136.451 3.39886 136.553 2.88881 136.752 2.41284C136.952 1.93688 137.246 1.50443 137.617 1.14052C137.989 0.776608 138.43 0.488444 138.915 0.292688C139.401 0.0969317 139.921 -0.00253079 140.446 4.89248e-05Z" fill="#263238"/>
  <path d="M159.925 18.0357C160.069 17.5972 160.145 17.1399 160.15 16.6793C160.15 14.9984 158.409 14.901 156.7 14.901H156.27V14.5051H163.725V14.901C161.785 14.901 161.077 16.1146 160.474 17.9124L156.502 29.5359C156.204 30.3991 155.952 31.0416 155.019 31.0416H154.939L151.443 19.9372L148.192 29.5619C147.888 30.425 147.636 31.0676 146.703 31.0676H146.63L141.545 14.901H139.757V14.5051H146.299V14.901H144.438L148.212 27.6344H148.365L151.212 19.1779L149.887 14.9335H148.1V14.5051H154.648V14.901H152.787L156.561 27.6344H156.707L159.925 18.0357Z" fill="#4C6ED7"/>
  <path d="M204.113 10.8253H174.08V37.4342H204.113V10.8253Z" fill="#4C6ED7"/>
  <path d="M204.113 21.9492C203.106 22.0054 202.105 22.1421 201.12 22.358C196.559 23.3315 195.367 29.7501 190.209 29.7501C185.641 29.7501 185.25 23.7209 178.702 22.9421C177.109 22.6962 175.477 22.9794 174.067 23.7469V37.4342H204.113V21.9492Z" fill="#263238"/>
  <path d="M184.058 16.9129C184.06 17.5681 183.863 18.2089 183.492 18.7543C183.122 19.2996 182.594 19.7248 181.977 19.9761C181.36 20.2274 180.68 20.2935 180.025 20.166C179.369 20.0385 178.767 19.7232 178.294 19.2599C177.821 18.7966 177.5 18.2062 177.37 17.5636C177.24 16.9209 177.307 16.2549 177.563 15.6498C177.82 15.0447 178.254 14.5278 178.81 14.1646C179.366 13.8014 180.02 13.6083 180.688 13.6095C181.582 13.6095 182.439 13.9576 183.071 14.5771C183.703 15.1966 184.058 16.0368 184.058 16.9129Z" fill="#FCD9D9"/>
  <path d="M205.484 2.32996H138.632V4.85456H205.484V2.32996Z" fill="#FCD9D9"/>
  <path d="M201.313 93.0533H172.372C171.234 93.0533 170.143 93.4964 169.339 94.2851C168.534 95.0738 168.082 96.1435 168.082 97.2588V112.432C168.082 113.548 168.534 114.617 169.339 115.406C170.143 116.195 171.234 116.638 172.372 116.638H173.26C172.359 118.585 170.611 121.57 167.85 123.342C167.85 123.342 173.723 122.94 179.841 116.638H201.299C202.437 116.638 203.528 116.195 204.333 115.406C205.138 114.617 205.59 113.548 205.59 112.432V97.2588C205.59 96.1457 205.14 95.078 204.338 94.2897C203.536 93.5014 202.448 93.0568 201.313 93.0533Z" fill="#263238"/>
  <path d="M181.867 104.307C181.868 103.878 181.74 103.458 181.497 103.1C181.255 102.743 180.909 102.464 180.505 102.299C180.101 102.134 179.655 102.091 179.226 102.174C178.796 102.258 178.402 102.464 178.092 102.768C177.782 103.071 177.571 103.458 177.486 103.879C177.401 104.3 177.446 104.737 177.614 105.133C177.782 105.529 178.066 105.868 178.431 106.106C178.796 106.343 179.224 106.469 179.662 106.468C180.246 106.466 180.806 106.238 181.219 105.833C181.632 105.428 181.865 104.88 181.867 104.307Z" fill="#4C6ED7"/>
  <path d="M189.368 104.307C189.368 103.88 189.239 103.462 188.997 103.106C188.755 102.751 188.41 102.474 188.007 102.31C187.605 102.147 187.161 102.104 186.734 102.187C186.306 102.271 185.913 102.477 185.605 102.779C185.296 103.081 185.086 103.466 185.001 103.885C184.916 104.305 184.96 104.739 185.127 105.134C185.294 105.529 185.576 105.866 185.939 106.104C186.301 106.341 186.728 106.468 187.164 106.468C187.748 106.466 188.308 106.238 188.721 105.833C189.134 105.428 189.367 104.88 189.368 104.307Z" fill="#4C6ED7"/>
  <path d="M196.877 104.307C196.878 103.878 196.749 103.458 196.507 103.101C196.265 102.744 195.92 102.465 195.516 102.3C195.112 102.135 194.667 102.091 194.238 102.174C193.808 102.257 193.414 102.463 193.104 102.765C192.794 103.068 192.583 103.455 192.497 103.875C192.411 104.296 192.454 104.732 192.622 105.129C192.789 105.525 193.072 105.864 193.436 106.102C193.8 106.341 194.228 106.468 194.665 106.468C195.25 106.466 195.811 106.238 196.225 105.834C196.639 105.429 196.873 104.88 196.877 104.307Z" fill="#4C6ED7"/>
  <path d="M42.1645 9.20294H89.8356C90.9699 9.20294 92.0578 9.64465 92.86 10.4309C93.6621 11.2172 94.1127 12.2835 94.1127 13.3955V45.787H37.9073V13.3955C37.9072 12.2869 38.3551 11.2235 39.153 10.4378C39.9508 9.65207 41.0336 9.20809 42.1645 9.20294Z" fill="#4C6ED7"/>
  <path d="M94.0863 40.5625H37.9074V45.7675H94.0863V40.5625Z" fill="#263238"/>
  <path d="M91.5173 42.3408H40.4828V43.9892H91.5173V42.3408Z" fill="white"/>
  <path d="M65.9999 33.4105C70.2855 33.4105 73.7597 30.0051 73.7597 25.8043C73.7597 21.6035 70.2855 18.198 65.9999 18.198C61.7143 18.198 58.2401 21.6035 58.2401 25.8043C58.2401 30.0051 61.7143 33.4105 65.9999 33.4105Z" fill="#263238"/>
  <path d="M62.4975 21.0731L70.873 25.8108L62.4975 30.5485V21.0731Z" fill="white"/>
  <path d="M69.5857 59.3418H16.267C15.2358 59.3418 14.3999 60.1612 14.3999 61.172V81.0897C14.3999 82.1005 15.2358 82.9199 16.267 82.9199H69.5857C70.6169 82.9199 71.4528 82.1005 71.4528 81.0897V61.172C71.4528 60.1612 70.6169 59.3418 69.5857 59.3418Z" fill="#263238"/>
  <path d="M21.3945 62.3039L21.6726 62.7582C20.4146 63.4461 19.2427 64.6533 19.2427 66.0681C19.2266 66.3111 19.2601 66.5549 19.3413 66.7851C19.4226 67.0152 19.5499 67.2272 19.7157 67.4085C19.8816 67.5898 20.0827 67.7369 20.3073 67.841C20.5319 67.9452 20.7755 68.0044 21.0237 68.0151C21.2091 68.0151 21.3349 67.9242 21.3349 67.7425C21.3349 67.5608 21.2422 67.5024 21.0568 67.4699C20.8068 67.4035 20.589 67.2522 20.4423 67.043C20.2955 66.8338 20.2294 66.5803 20.2557 66.3277C20.2605 66.1262 20.3071 65.9277 20.3926 65.7444C20.4781 65.5611 20.6008 65.3968 20.7531 65.2614C20.9055 65.126 21.0844 65.0224 21.2788 64.9569C21.4733 64.8914 21.6794 64.8654 21.8844 64.8804C22.1075 64.8812 22.3282 64.9258 22.5334 65.0116C22.7386 65.0974 22.9241 65.2227 23.079 65.38C23.234 65.5373 23.3552 65.7235 23.4354 65.9275C23.5157 66.1315 23.5534 66.3493 23.5463 66.5678C23.5431 66.8425 23.4834 67.1137 23.3708 67.3653C23.2583 67.6168 23.0952 67.8436 22.8912 68.032C22.6873 68.2203 22.4467 68.3665 22.1839 68.4618C21.921 68.557 21.6413 68.5993 21.3614 68.5862C21.0134 68.6083 20.6645 68.5585 20.3375 68.44C20.0104 68.3215 19.7123 68.1369 19.4626 67.8983C19.213 67.6597 19.0172 67.3723 18.8881 67.0548C18.7589 66.7372 18.6993 66.3967 18.713 66.0551C18.6931 64.4132 19.9842 63.0892 21.3945 62.3039ZM27.0819 62.3039L27.36 62.7582C26.0954 63.4461 24.9301 64.6533 24.9301 66.0681C24.9131 66.3113 24.946 66.5554 25.0269 66.786C25.1077 67.0165 25.235 67.2289 25.401 67.4104C25.5671 67.5919 25.7686 67.7389 25.9936 67.8428C26.2186 67.9467 26.4626 68.0053 26.7111 68.0151C26.8965 68.0151 27.0223 67.9242 27.0223 67.7425C27.0223 67.5608 26.9296 67.5024 26.7442 67.4699C26.4942 67.4035 26.2764 67.2522 26.1297 67.043C25.9829 66.8338 25.9168 66.5803 25.9431 66.3277C25.947 66.1259 25.9929 65.927 26.0781 65.7432C26.1633 65.5595 26.286 65.3948 26.4385 65.2592C26.5911 65.1236 26.7703 65.0201 26.9652 64.955C27.1601 64.8898 27.3666 64.8645 27.5718 64.8804C27.7949 64.8812 28.0156 64.9258 28.2208 65.0116C28.426 65.0974 28.6115 65.2227 28.7665 65.38C28.9214 65.5373 29.0426 65.7235 29.1228 65.9275C29.2031 66.1315 29.2408 66.3493 29.2337 66.5678C29.2296 66.8422 29.1693 67.113 29.0564 67.3642C28.9435 67.6153 28.7804 67.8417 28.5767 68.0299C28.3729 68.2181 28.1327 68.3643 27.8703 68.4599C27.6078 68.5554 27.3285 68.5984 27.0488 68.5862C26.701 68.6073 26.3527 68.5567 26.026 68.4379C25.6994 68.319 25.4018 68.1344 25.1523 67.896C24.9029 67.6576 24.7071 67.3706 24.5776 67.0536C24.4481 66.7365 24.3877 66.3964 24.4004 66.0551C24.3739 64.4132 25.665 63.0892 27.0819 62.3039Z" fill="#4C6ED7"/>
  <path d="M59.2488 119.227C65.9505 118.155 70.4966 111.96 69.4027 105.391C68.3089 98.8222 61.9893 94.366 55.2876 95.4382C48.5858 96.5104 44.0397 102.705 45.1336 109.274C46.2274 115.843 52.547 120.299 59.2488 119.227Z" fill="#263238"/>
  <path d="M65.0668 114.057C68.8478 109.837 68.4228 103.411 64.1174 99.7051C59.812 95.9988 53.2566 96.4155 49.4755 100.636C45.6945 104.856 46.1195 111.282 50.4249 114.988C54.7303 118.694 61.2857 118.277 65.0668 114.057Z" fill="#F8F4F4"/>
  <path d="M134.196 107.357C134.196 107.357 141.248 122.109 141.248 122.888C141.248 123.667 134.991 127.002 133.799 127.703C132.875 128.219 131.922 128.685 130.945 129.099L131.66 135.933C131.66 135.933 142.433 133.525 146.948 131.117C151.464 128.709 151.305 125.99 150.259 121.953C149.213 117.916 142.254 102.315 142.254 102.315L134.196 107.357Z" fill="#FCD9D9"/>
  <g opacity="0.5" style="mix-blend-mode:multiply">
    <path d="M146.928 131.117C151.444 128.709 151.285 125.99 150.239 121.953C149.193 117.916 142.234 102.315 142.234 102.315L141.109 103.015L140.751 103.664C140.751 103.664 147.246 119.292 147.637 124.497C147.902 127.995 140.718 132.357 135.971 134.849C139.493 133.934 144.287 132.525 146.928 131.117Z" fill="#4C6ED7"/>
  </g>
  <path d="M83.3206 104.099C83.3206 104.099 78.1761 122.576 78.0238 125.841C77.8715 129.105 88.24 135.543 88.6173 135.933C88.9947 136.322 88.0281 124.705 88.0281 124.705L91.5438 107.831L83.3206 104.099Z" fill="#FCD9D9"/>
  <g opacity="0.5" style="mix-blend-mode:multiply">
    <path d="M85.6776 105.611L85.5651 105.112L83.3206 104.099C83.3206 104.099 78.1761 122.576 78.0238 125.841C77.8715 129.105 88.2399 135.543 88.6173 135.933C88.7696 136.088 88.71 134.349 88.5842 132.201C85.4989 129.637 81.0694 126.029 80.553 124.51" fill="#4C6ED7"/>
  </g>
  <path d="M107.481 85.538C107.481 85.538 105.494 86.9398 101.621 87.0956C97.7477 87.2513 97.5623 84.4996 92.7489 84.4996C86.9158 84.4996 79.5996 102.587 79.5996 102.587C79.5996 102.587 83.2412 106.085 86.8099 107.558C88.784 108.406 90.8596 109.006 92.9873 109.343L93.5434 121.226H132.832L133.302 109.343L145.584 101.536C145.584 101.536 139.559 90.9766 136.633 87.0177C133.706 83.0588 128.787 84.532 127.284 85.538C125.781 86.5439 121.325 86.7841 119.683 86.5504C117.541 86.0857 115.424 85.5161 113.34 84.8436C113.34 84.8436 110.811 82.7798 107.481 85.538Z" fill="#4C6ED7"/>
  <path d="M99.6413 72.7267C99.6413 72.7267 98.1317 70.1697 96.9466 71.4871C95.7614 72.8046 97.9 75.8354 99.0852 76.8414C100.27 77.8473 101.144 77.2308 101.071 76.1469C100.999 75.0631 99.6413 72.7267 99.6413 72.7267Z" fill="#4C6ED7"/>
  <path opacity="0.5" d="M99.6413 72.7267C99.6413 72.7267 98.1317 70.1697 96.9466 71.4871C95.7614 72.8046 97.9 75.8354 99.0852 76.8414C100.27 77.8473 101.144 77.2308 101.071 76.1469C100.999 75.0631 99.6413 72.7267 99.6413 72.7267Z" fill="#FCD9D9"/>
  <path d="M123.603 72.7267C123.603 72.7267 125.106 70.1697 126.297 71.4871C127.489 72.8046 125.344 75.8354 124.159 76.8414C122.974 77.8473 122.093 77.2308 122.173 76.1469C122.252 75.0631 123.603 72.7267 123.603 72.7267Z" fill="#4C6ED7"/>
  <path opacity="0.5" d="M123.603 72.7267C123.603 72.7267 125.106 70.1697 126.297 71.4871C127.489 72.8046 125.344 75.8354 124.159 76.8414C122.974 77.8473 122.093 77.2308 122.173 76.1469C122.252 75.0631 123.603 72.7267 123.603 72.7267Z" fill="#FCD9D9"/>
  <path d="M106.766 84.9993C107.513 88.3132 108.466 91.5794 109.619 94.7797C111.049 98.2713 113.737 98.2713 114.85 96.0193C115.962 93.7673 116.67 85.3757 116.67 85.3757C116.67 85.3757 109.222 86.3947 106.766 84.9993Z" fill="#FCD9D9"/>
  <path d="M99.8002 73.5834C99.8002 73.5834 101.859 80.7224 105.759 84.9214C109.659 89.1205 111.056 90.1134 113.128 89.8084C115.201 89.5034 117.405 86.8619 120.491 81.3714C123.576 75.8809 123.801 71.6689 124.059 71.2795C124.318 70.8901 123.397 63.1281 118.988 59.7858C114.578 56.4434 109.639 54.9767 105.362 58.624C101.085 62.2714 98.3701 68.2227 99.8002 73.5834Z" fill="#FCD9D9"/>
  <g opacity="0.5" style="mix-blend-mode:multiply">
    <path d="M118.968 59.7598C114.532 56.4239 109.619 54.9507 105.342 58.5981C101.065 62.2454 98.3699 68.2227 99.8 73.5834C99.8 73.5834 100.191 74.9593 100.965 76.8284C100.963 76.5891 100.997 76.3508 101.065 76.121C102.011 73.1811 104.805 67.4893 114.207 70.0983C121.676 72.1621 120.762 78.6002 120.067 82.0334L120.471 81.3195C123.563 75.8095 123.781 71.617 124.039 71.2276C124.298 70.8382 123.404 63.1021 118.968 59.7598Z" fill="#4C6ED7"/>
  </g>
  <path d="M56.4856 141.079L56.1612 219.757C56.1612 220.005 56.2616 220.243 56.4404 220.418C56.6192 220.593 56.8617 220.692 57.1146 220.692C57.3612 220.692 57.5981 220.598 57.7749 220.429C57.9517 220.261 58.0545 220.031 58.0614 219.79L60.3522 141.19L56.4856 141.079Z" fill="#F8F4F4"/>
  <path d="M51.083 159.472L50.7718 240.811C50.7709 240.934 50.795 241.056 50.8426 241.169C50.8902 241.283 50.9604 241.386 51.0491 241.473C51.1378 241.56 51.2432 241.629 51.3593 241.676C51.4754 241.723 51.5998 241.746 51.7252 241.745C51.9713 241.745 52.208 241.652 52.3857 241.485C52.5634 241.319 52.6684 241.091 52.6786 240.85L54.9629 159.576L51.083 159.472Z" fill="#F8F4F4"/>
  <path d="M167.453 141.079L167.778 219.757C167.779 219.88 167.755 220.001 167.708 220.114C167.66 220.228 167.591 220.331 167.503 220.418C167.415 220.505 167.31 220.573 167.195 220.621C167.079 220.668 166.956 220.692 166.831 220.692C166.584 220.692 166.346 220.598 166.168 220.43C165.99 220.261 165.886 220.032 165.877 219.79L163.593 141.19L167.453 141.079Z" fill="#F8F4F4"/>
  <path d="M172.863 159.472L173.187 240.811C173.188 240.934 173.164 241.056 173.116 241.169C173.069 241.283 172.999 241.386 172.91 241.473C172.821 241.56 172.716 241.629 172.6 241.676C172.484 241.723 172.359 241.746 172.234 241.745C171.988 241.745 171.752 241.652 171.576 241.485C171.399 241.318 171.295 241.09 171.287 240.85L168.996 159.576L172.863 159.472Z" fill="#F8F4F4"/>
  <path d="M88.7034 162.853L88.5114 235.048C88.4904 235.228 88.5415 235.409 88.6538 235.553C88.7662 235.697 88.9311 235.793 89.1139 235.82C89.2924 235.796 89.4547 235.706 89.5679 235.568C89.681 235.431 89.7365 235.256 89.723 235.08L91.1598 162.938L88.7034 162.853Z" fill="white"/>
  <path d="M135.322 160.53L135.501 223.534C135.516 223.687 135.471 223.839 135.375 223.96C135.278 224.081 135.139 224.161 134.984 224.183C134.83 224.161 134.691 224.081 134.596 223.96C134.501 223.839 134.457 223.686 134.474 223.534L133.249 160.582L135.322 160.53Z" fill="white"/>
  <path d="M87.9818 160.53L88.1606 223.534C88.1759 223.687 88.1308 223.839 88.0347 223.96C87.9386 224.081 87.7988 224.161 87.6442 224.183C87.4901 224.161 87.3509 224.081 87.2558 223.96C87.1608 223.839 87.1172 223.686 87.1344 223.534L85.9095 160.582L87.9818 160.53Z" fill="white"/>
  <path d="M133.991 162.853L134.196 235.048C134.217 235.228 134.166 235.409 134.054 235.553C133.941 235.697 133.776 235.793 133.594 235.82C133.416 235.794 133.254 235.704 133.141 235.567C133.029 235.43 132.973 235.256 132.984 235.08L131.548 162.938L133.991 162.853Z" fill="white"/>
  <path d="M111.023 167.909C127.295 167.909 140.486 164.954 140.486 161.308C140.486 157.663 127.295 154.708 111.023 154.708C94.7507 154.708 81.5595 157.663 81.5595 161.308C81.5595 164.954 94.7507 167.909 111.023 167.909Z" fill="#FCD9D9"/>
  <path d="M96.6752 217.336C96.6752 217.336 95.1326 219.504 96.2383 220.581C97.344 221.659 98.443 221.23 98.3305 222.314C98.2179 223.398 96.4568 227.071 94.9141 230.965C93.3714 234.859 96.5693 238.753 99.5487 237.676C102.528 236.599 102.197 225.773 102.634 223.826C103.071 221.879 103.409 221.555 103.296 219.718C103.184 217.882 103.078 215.935 101.641 215.714C100.204 215.493 97.3373 216.584 96.6752 217.336Z" fill="#FCD9D9"/>
  <path d="M101.409 234.691C99.4229 233.951 96.3772 234.1 94.6624 234.269C95.2384 236.716 97.4432 238.435 99.5487 237.676C100.429 237.358 101.005 236.203 101.409 234.691Z" fill="#4C6ED7"/>
  <path d="M93.2588 212.579C93.2588 212.579 96.4567 217.882 97.3373 219.283C98.2179 220.685 101.204 220.257 101.535 218.31C101.866 216.363 100.317 210.957 100.317 210.957L93.6958 212.579H93.2588Z" fill="#FCD9D9"/>
  <path d="M85.6446 204.142C85.6446 204.142 84.7574 205.551 85.201 206.524C85.6446 207.498 86.8562 210.308 87.6309 211.716C88.4055 213.124 91.9345 213.988 96.013 213.339C100.092 212.69 102.415 210.846 102.528 209.224C102.641 207.601 101.866 205.44 101.31 202.844C100.754 200.248 99.3235 200.359 97.3372 200.359C95.3509 200.359 87.2998 202.63 85.6446 204.142Z" fill="#4C6ED7"/>
  <path d="M97.5622 172.341C97.6218 169.681 99.191 168.37 99.3102 166.546C99.4969 164.135 99.2936 161.71 98.7077 159.361L95.6885 155.318C87.0018 155.429 80.7781 155.571 80.6787 155.604C80.3477 155.708 80.1226 157.551 79.9041 159.063C79.9041 159.063 76.2162 159.524 76.8783 169.583C76.971 170.985 80.692 187.203 80.9634 189.053C82.6187 200.352 86.3066 206.011 86.3066 206.011C86.3066 206.011 86.6376 207.42 90.9413 207.095C95.2449 206.771 99.5485 203.961 99.5485 203.961C99.5485 203.961 97.3371 181.966 97.5622 172.341Z" fill="#263238"/>
  <path d="M79.3081 157.414C79.3081 157.414 74.7462 158.063 71.9522 161.192C69.1581 164.32 71.5284 166.384 76.9576 165.825C82.3868 165.267 88.6503 159.822 88.9151 159.53C89.18 159.238 83.2542 155.539 79.3081 157.414Z" fill="#FCD9D9"/>
  <path d="M87.4059 159.361C90.3123 159.508 93.1961 159.943 96.0131 160.659C99.7672 161.743 106.388 163.904 107.931 163.904C109.474 163.904 109.037 158.278 109.037 157.2C109.037 156.123 89.1737 155.467 86.7438 155.467C84.3139 155.467 87.4059 159.361 87.4059 159.361Z" fill="#FCD9D9"/>
  <path d="M109.036 157.2C109.036 157.2 107.268 158.063 106.606 161.308C105.944 164.553 105.064 166.286 106.388 167.149C107.712 168.013 113.452 168.662 114.333 167.798C115.214 166.935 117.644 162.606 118.087 159.796C118.531 156.986 109.036 157.2 109.036 157.2Z" fill="#4C6ED7"/>
  <path d="M116.538 158.278C115.512 159.432 114.692 160.749 114.115 162.172C113.647 163.661 113.277 165.179 113.009 166.715C115.121 167.282 117.187 168.007 119.186 168.882C122.722 170.394 128.681 171.478 134.415 172.776C140.148 174.074 141.698 175.372 143.684 175.372C145.67 175.372 148.1 173.854 151.192 170.18C154.284 166.507 151.629 158.712 148.544 156.331C145.459 153.949 128.899 152.008 126.695 152.657C124.49 153.306 116.538 158.278 116.538 158.278Z" fill="#263238"/>
  <path d="M75.1304 165.884C74.6944 163.942 73.8111 162.124 72.5483 160.569C72.343 160.757 72.1444 160.952 71.9524 161.166C69.496 163.904 71.032 165.851 75.1304 165.884Z" fill="#4C6ED7"/>
  <path d="M176.213 155.072L173.829 152.969L168.321 141.287C168.059 140.755 167.649 140.308 167.138 139.996C166.627 139.685 166.036 139.523 165.434 139.528H58.439C57.8361 139.521 57.2436 139.683 56.7312 139.995C56.2187 140.306 55.8075 140.754 55.5457 141.287L48.6797 155.837L47.5475 155.429V158.758L47.6005 158.719C47.6679 159.163 47.8979 159.568 48.2476 159.858C48.5972 160.148 49.0426 160.304 49.5007 160.296H174.366C174.848 160.307 175.316 160.134 175.671 159.813C176.025 159.492 176.239 159.048 176.266 158.576L176.213 155.072Z" fill="#263238"/>
  <path d="M174.365 157.252H49.5003C49.1911 157.264 48.8839 157.199 48.6073 157.063C48.3308 156.927 48.0941 156.724 47.9194 156.474C47.7447 156.223 47.6377 155.933 47.6085 155.632C47.5793 155.33 47.6288 155.025 47.7524 154.747L55.5453 138.243C55.8058 137.71 56.2167 137.26 56.7295 136.949C57.2423 136.637 57.8354 136.476 58.4387 136.484H165.434C166.036 136.477 166.627 136.639 167.139 136.951C167.65 137.262 168.06 137.711 168.32 138.243L176.113 154.747C176.237 155.025 176.286 155.33 176.257 155.632C176.228 155.933 176.121 156.223 175.946 156.474C175.772 156.724 175.535 156.927 175.258 157.063C174.982 157.199 174.675 157.264 174.365 157.252Z" fill="white"/>
  <g opacity="0.5" style="mix-blend-mode:multiply">
    <path d="M55.8236 146.167C55.8236 146.167 52.9964 148.069 54.7642 148.763C56.532 149.458 76.8518 148.939 79.328 148.244C81.8043 147.55 84.6248 141.144 84.6248 140.106C84.6248 139.067 81.0627 138.321 79.7518 138.263C78.4408 138.204 61.1203 139.236 61.1203 139.236L55.8236 146.167Z" fill="#4C6ED7"/>
  </g>
  <g opacity="0.5" style="mix-blend-mode:multiply">
    <path d="M156.899 149.458C160.9 149.458 164.143 148.139 164.143 146.511C164.143 144.884 160.9 143.565 156.899 143.565C152.899 143.565 149.656 144.884 149.656 146.511C149.656 148.139 152.899 149.458 156.899 149.458Z" fill="#4C6ED7"/>
  </g>
  <g opacity="0.5" style="mix-blend-mode:multiply">
    <path d="M110.784 153.099C125.129 153.099 136.758 150.966 136.758 148.335C136.758 145.704 125.129 143.571 110.784 143.571C96.4393 143.571 84.8103 145.704 84.8103 148.335C84.8103 150.966 96.4393 153.099 110.784 153.099Z" fill="#4C6ED7"/>
  </g>
  <path d="M151.603 134.92C151.603 134.92 151.126 133.058 149.543 133.681C147.961 134.304 148.12 138.418 148.431 140.748C148.742 143.078 150.888 141.988 150.888 141.988V140.592C150.888 140.592 150.1 141.209 149.702 140.359C149.305 139.509 149.385 135.232 149.782 135.31C150.179 135.388 150.967 136.705 150.967 136.705C150.967 136.705 151.205 136.556 151.603 134.92Z" fill="#4C6ED7"/>
  <path d="M150.464 135.232V145.434C150.464 146.635 153.278 147.608 156.754 147.608C160.23 147.608 163.037 146.635 163.037 145.434V135.232H150.464Z" fill="#4C6ED7"/>
  <path d="M163.037 135.232C163.037 136.27 160.223 137.107 156.754 137.107C153.284 137.107 150.464 136.27 150.464 135.232C150.464 134.193 153.278 133.356 156.754 133.356C160.23 133.356 163.037 134.2 163.037 135.232Z" fill="#FCD9D9"/>
  <path d="M162.216 135.232C162.216 136.134 159.766 136.861 156.754 136.861C153.741 136.861 151.285 136.134 151.285 135.232C151.285 134.33 153.735 133.603 156.754 133.603C159.773 133.603 162.216 134.33 162.216 135.232Z" fill="#FCD9D9"/>
  <path d="M152.536 136.27C155.288 137.057 158.213 137.057 160.965 136.27C158.213 135.483 155.288 135.483 152.536 136.27Z" fill="#263238"/>
  <path d="M55.0425 139.892L55.122 143.383L79.123 143.617V139.58L55.0425 139.892Z" fill="white"/>
  <path d="M79.1229 143.617L82.6121 136.244V134.07L78.964 140.281L79.1229 143.617Z" fill="#FCD9D9"/>
  <path d="M55.0425 143.072L55.122 146.57L79.123 146.803V142.767L55.0425 143.072Z" fill="#F8F4F4"/>
  <path d="M79.1229 146.803L82.6121 139.424V137.25L78.964 143.461L79.1229 146.803Z" fill="#FCD9D9"/>
  <path d="M64.3118 131.039C64.3118 131.039 64.868 129.955 64.0735 129.488C63.279 129.021 62.4116 130.137 61.9349 130.494C61.4582 130.851 51.4804 137.328 51.1626 138.34C50.8448 139.353 51.1626 141.585 53.3012 141.832C55.4397 142.079 57.34 140.67 58.2934 140.437C59.2468 140.203 59.6176 140.125 59.6176 140.125L66.1922 131.429L64.3118 131.039Z" fill="white"/>
  <path d="M53.3011 141.839C55.4397 142.072 57.3399 140.677 58.2934 140.443C59.2468 140.21 59.6176 140.132 59.6176 140.132L59.8559 139.814L53.6785 138.581C53.3427 138.27 52.9109 138.079 52.4516 138.037C51.9922 137.994 51.5316 138.104 51.1427 138.347C50.8448 139.346 51.1626 141.598 53.3011 141.839Z" fill="white"/>
  <path d="M53.6983 138.594H72.2371C78.0238 138.594 79.7651 138.282 79.7651 138.282L83.3272 131.059C83.3272 131.059 72.0715 131.76 68.5955 131.526C67.1592 131.485 65.7286 131.329 64.3184 131.059L53.6983 138.594Z" fill="#F8F4F4"/>
  <path d="M53.6983 138.594L54.0161 139.989C54.0161 139.989 69.0656 140.067 73.025 140.067C76.9843 140.067 79.9969 140.223 79.9969 140.223L79.7585 138.276L53.6983 138.594Z" fill="#D5D5D5"/>
  <path d="M79.9968 140.203L83.3205 132.746V131.039L79.7585 138.263L79.9968 140.203Z" fill="#FCD9D9"/>
  <path d="M133.468 148.926H88.0811C87.9806 148.926 87.8808 148.908 87.7877 148.871C87.6946 148.834 87.6098 148.779 87.5384 148.709C87.467 148.64 87.4103 148.557 87.3717 148.466C87.333 148.375 87.3131 148.278 87.3131 148.179C87.3131 148.081 87.333 147.983 87.3717 147.892C87.4103 147.801 87.467 147.719 87.5384 147.649C87.6098 147.58 87.6946 147.525 87.7877 147.488C87.8808 147.451 87.9806 147.432 88.0811 147.433H133.468C133.568 147.432 133.668 147.451 133.76 147.488C133.853 147.525 133.937 147.58 134.008 147.65C134.079 147.719 134.135 147.802 134.173 147.893C134.211 147.984 134.23 148.081 134.229 148.179C134.23 148.277 134.211 148.375 134.173 148.466C134.135 148.557 134.079 148.639 134.008 148.709C133.937 148.778 133.853 148.833 133.76 148.871C133.668 148.908 133.568 148.926 133.468 148.926Z" fill="#FCD9D9"/>
  <path d="M133.852 147.42H87.6904C87.5214 147.42 87.3588 147.357 87.2357 147.244C87.1126 147.13 87.0384 146.975 87.0283 146.81L84.5189 117.248C84.5076 117.156 84.5164 117.064 84.5445 116.976C84.5727 116.888 84.6197 116.807 84.6823 116.738C84.745 116.669 84.8219 116.614 84.9078 116.577C84.9938 116.539 85.087 116.52 85.181 116.521H136.368C136.462 116.52 136.555 116.539 136.641 116.577C136.727 116.614 136.804 116.669 136.866 116.738C136.929 116.807 136.976 116.888 137.004 116.976C137.032 117.064 137.041 117.156 137.03 117.248L134.521 146.81C134.51 146.976 134.435 147.132 134.311 147.246C134.186 147.36 134.022 147.422 133.852 147.42Z" fill="#F8F4F4"/>
  <path d="M115.128 132.48C115.128 134.245 113.175 135.673 110.771 135.673C108.368 135.673 106.408 134.245 106.408 132.48C106.408 130.715 108.361 129.293 110.771 129.293C113.181 129.293 115.128 130.721 115.128 132.48Z" fill="#F8F4F4"/>
  <path d="M118.524 53.0881C119.312 52.9258 121.001 52.2898 122.139 49.7003C122.157 49.6611 122.166 49.6189 122.167 49.5762C122.168 49.5334 122.16 49.4909 122.144 49.4511C122.128 49.4112 122.104 49.3749 122.074 49.3442C122.044 49.3135 122.007 49.2889 121.967 49.272C121.886 49.239 121.795 49.2382 121.714 49.2697C121.632 49.3012 121.567 49.3625 121.53 49.4407C120.484 51.8161 118.988 52.3417 118.365 52.4586C119.479 51.1374 120.094 49.4802 120.107 47.7663C120.107 43.2623 115.849 39.6149 110.599 39.6149C105.349 39.6149 101.091 43.2623 101.091 47.7663C101.095 49.4111 101.654 51.0084 102.68 52.3093C101.681 52.2574 99.9922 52.6727 97.8537 55.1195C97.7926 55.1812 97.7584 55.2638 97.7584 55.3499C97.7584 55.4359 97.7926 55.5185 97.8537 55.5802C97.9151 55.6303 97.9923 55.6578 98.0722 55.6581C98.1203 55.6582 98.1679 55.6477 98.2114 55.6275C98.2549 55.6073 98.2933 55.5779 98.3238 55.5413C101.058 52.4196 102.866 52.9453 103.23 53.0881C102.612 53.4214 102.032 53.8196 101.502 54.2758C98.4496 56.9691 96.5891 62.0637 96.8274 66.3082C97.0953 69.1233 98.1364 71.8146 99.84 74.0962C102.057 72.541 103.895 70.5241 105.223 68.1903C106.212 66.476 107.097 64.7054 107.871 62.888C107.871 64.7895 108.123 67.087 109.142 68.729C109.878 70.0259 110.956 71.1053 112.262 71.8543C113.569 72.6032 115.057 72.9942 116.571 72.9864C117.094 72.9937 117.616 72.9437 118.127 72.8371C118.172 72.8261 118.214 72.806 118.251 72.778C118.287 72.7501 118.317 72.7149 118.339 72.6749C120.895 73.207 123.437 73.1616 123.828 72.6294C124.457 71.7792 125.351 69.1248 125.649 65.8799C126.191 60.3764 122.656 55.5997 118.524 53.0881ZM109.758 68.3331C108.474 66.2757 108.513 62.9204 108.666 60.9929L108.752 60.7722C108.813 62.7547 109.328 64.6982 110.26 66.4587C111.192 68.2192 112.516 69.7516 114.135 70.942C115.029 71.5477 116.02 72.0019 117.068 72.2855C115.446 72.3958 112.109 72.0908 109.758 68.3331Z" fill="#263238"/>
</svg>