<svg xmlns="http://www.w3.org/2000/svg" width="229" height="228" viewBox="0 0 229 228" fill="none">
  <path d="M104.835 20.7299H26.7349V156.55H104.835V20.7299Z" fill="#EBEBEB"/>
  <path d="M63.9774 26.172H30.9924V86.5821H63.9774V26.172Z" fill="white"/>
  <path d="M100.582 26.172H67.6018V86.5821H100.582V26.172Z" fill="white"/>
  <path d="M63.9774 90.6982H30.9924V151.108H63.9774V90.6982Z" fill="white"/>
  <path d="M100.582 90.6982H67.6018V151.108H100.582V90.6982Z" fill="white"/>
  <path d="M50.9608 26.172L30.9924 48.8189V35.4595L39.1814 26.172H50.9608Z" fill="#EBEBEB"/>
  <path d="M30.9924 148.882L63.9774 111.472V124.826L40.7988 151.114H30.9924V148.882Z" fill="#EBEBEB"/>
  <path d="M94.0687 90.6982L67.6018 120.721V107.362L82.2894 90.6982H94.0687Z" fill="#EBEBEB"/>
  <path d="M100.582 69.9574V83.3168L97.698 86.5876H85.9187L100.582 69.9574Z" fill="#EBEBEB"/>
  <path d="M100.582 137.119V150.473L100.017 151.114H88.2424L100.582 137.119Z" fill="#EBEBEB"/>
  <path d="M32.8826 90.6982H38.7674L30.9924 99.5161V92.8419L32.8826 90.6982Z" fill="#EBEBEB"/>
  <path d="M36.5071 86.5876L63.9775 55.4323V62.112L42.3967 86.5876H36.5071Z" fill="#EBEBEB"/>
  <path d="M95.6617 26.172L67.6018 57.9959V51.3217L89.7769 26.172H95.6617Z" fill="#EBEBEB"/>
  <path d="M60.6404 26.172L30.9924 59.797V58.1285L59.1644 26.172H60.6404Z" fill="#EBEBEB"/>
  <path d="M49.4263 151.114L63.9775 134.611V136.279L50.8975 151.114H49.4263Z" fill="#EBEBEB"/>
  <path d="M100.582 93.096V94.7646L67.6018 132.169V130.495L100.582 93.096Z" fill="#EBEBEB"/>
  <path d="M194.597 53.063C196.092 39.1326 187.347 26.4652 175.064 24.7696C162.781 23.0739 151.612 32.9921 150.117 46.9225C148.622 60.8529 157.367 73.5203 169.65 75.2159C181.933 76.9116 193.102 66.9933 194.597 53.063Z" fill="#EBEBEB"/>
  <path d="M173.382 74.8084C185.19 74.8084 194.763 63.9517 194.763 50.5593C194.763 37.1668 185.19 26.3102 173.382 26.3102C161.574 26.3102 152.001 37.1668 152.001 50.5593C152.001 63.9517 161.574 74.8084 173.382 74.8084Z" fill="#DBDBDB"/>
  <path d="M173.382 73.278C184.445 73.278 193.414 63.1064 193.414 50.5592C193.414 38.0121 184.445 27.8405 173.382 27.8405C162.319 27.8405 153.35 38.0121 153.35 50.5592C153.35 63.1064 162.319 73.278 173.382 73.278Z" fill="white"/>
  <path opacity="0.5" d="M192.956 45.7415C183.836 52.0068 168.847 62.3164 160.468 67.9242C158.098 65.6604 156.225 62.8023 154.997 59.576L182.706 30.4483C185.295 31.9946 187.554 34.1649 189.325 36.8069C191.096 39.4489 192.335 42.4984 192.956 45.7415Z" fill="#EBEBEB"/>
  <path opacity="0.5" d="M193.399 51.3549C193.332 53.8805 192.893 56.3755 192.098 58.7363L167.117 72.1343C166.029 71.7239 164.973 71.2101 163.96 70.5984C171.482 65.648 185.278 56.6533 193.399 51.3549Z" fill="#EBEBEB"/>
  <path d="M173.572 29.4925H173.187V32.9346H173.572V29.4925Z" fill="#C7C7C7"/>
  <path d="M164.263 32.1941L163.926 32.4151L165.443 35.396L165.781 35.175L164.263 32.1941Z" fill="#C7C7C7"/>
  <path d="M157.383 39.8291L157.19 40.2074L159.819 41.9289L160.012 41.5506L157.383 39.8291Z" fill="#C7C7C7"/>
  <path d="M157.842 50.3383H154.807V50.7751H157.842V50.3383Z" fill="#C7C7C7"/>
  <path d="M159.826 59.1902L157.197 60.9116L157.389 61.2899L160.018 59.5684L159.826 59.1902Z" fill="#C7C7C7"/>
  <path d="M165.451 65.7273L163.935 68.7091L164.273 68.9299L165.789 65.9481L165.451 65.7273Z" fill="#C7C7C7"/>
  <path d="M173.572 68.1839H173.187V71.626H173.572V68.1839Z" fill="#C7C7C7"/>
  <path d="M181.321 65.7138L180.983 65.9348L182.501 68.9157L182.838 68.6947L181.321 65.7138Z" fill="#C7C7C7"/>
  <path d="M186.926 59.1724L186.733 59.5506L189.362 61.2721L189.555 60.8939L186.926 59.1724Z" fill="#C7C7C7"/>
  <path d="M191.957 50.3383H188.922V50.7751H191.957V50.3383Z" fill="#C7C7C7"/>
  <path d="M189.371 39.8278L186.742 41.5497L186.935 41.928L189.564 40.206L189.371 39.8278Z" fill="#C7C7C7"/>
  <path d="M182.501 32.2093L180.985 35.1912L181.323 35.412L182.839 32.4301L182.501 32.2093Z" fill="#C7C7C7"/>
  <path d="M173.674 31.0506L174.332 52.0952L172.432 52.0676L173.158 31.045L173.674 31.0506Z" fill="#C7C7C7"/>
  <path d="M185.229 43.2221L172.748 52.2554L171.842 50.3659L184.981 42.7082L185.229 43.2221Z" fill="#A6A6A6"/>
  <path d="M173.382 51.2941C173.74 51.2941 174.03 50.9651 174.03 50.5593C174.03 50.1534 173.74 49.8244 173.382 49.8244C173.024 49.8244 172.734 50.1534 172.734 50.5593C172.734 50.9651 173.024 51.2941 173.382 51.2941Z" fill="#C7C7C7"/>
  <path d="M224.983 181.345H0V228H224.983V181.345Z" fill="#EBEBEB"/>
  <path d="M0 181.235L28.1671 181.127L56.3342 181.088L112.663 181.01L168.998 181.088L197.165 181.127L225.332 181.235L197.165 181.348L168.998 181.387L112.663 181.465L56.3342 181.387L28.1671 181.348L0 181.235Z" fill="#263238"/>
  <path d="M197.49 210.629L206.548 204.565L218.055 208.933L208.607 215.444L197.49 210.629Z" fill="#F7F7F7"/>
  <path d="M208.247 213.755C208.805 213.288 209.379 212.856 209.955 212.427C210.532 211.998 211.117 211.582 211.705 211.174C212.294 210.765 212.885 210.367 213.489 209.989L214.389 209.42C214.69 209.24 214.99 209.053 215.311 208.882C215.035 209.117 214.747 209.335 214.464 209.563L213.603 210.214C213.029 210.646 212.441 211.055 211.855 211.463C211.27 211.872 210.673 212.27 210.069 212.648C209.466 213.026 208.868 213.408 208.247 213.755Z" fill="#DBDBDB"/>
  <path d="M209.745 211.29C210.385 210.707 211.059 210.173 211.762 209.693C212.462 209.201 213.192 208.765 213.945 208.389C212.654 209.546 211.242 210.521 209.742 211.29H209.745Z" fill="#DBDBDB"/>
  <path d="M205.518 212.757C206.076 212.291 206.65 211.855 207.226 211.426C207.802 210.997 208.388 210.585 208.976 210.173C209.565 209.761 210.156 209.369 210.76 208.988L211.66 208.419C211.961 208.242 212.261 208.052 212.582 207.881C212.306 208.12 212.018 208.334 211.735 208.562L210.874 209.213C210.3 209.645 209.712 210.054 209.126 210.466C208.541 210.878 207.944 211.269 207.34 211.647C206.737 212.025 206.139 212.417 205.518 212.757Z" fill="#DBDBDB"/>
  <path d="M205.158 211.576C206.106 210.765 207.1 210.043 208.106 209.345C209.112 208.647 210.141 207.983 211.213 207.401C210.264 208.215 209.271 208.937 208.262 209.635C207.253 210.333 206.242 210.993 205.158 211.576Z" fill="#DBDBDB"/>
  <path d="M206.358 209.325C206.884 208.821 207.444 208.366 208.034 207.963C208.617 207.552 209.23 207.197 209.865 206.901C208.806 207.898 207.625 208.715 206.358 209.325Z" fill="#DBDBDB"/>
  <path d="M170.344 203.829L184.652 197.493L198.46 206.931L184.223 213.499L170.344 203.829Z" fill="#F7F7F7"/>
  <path d="M184.022 211.576C184.956 211.068 185.899 210.598 186.844 210.132C187.79 209.665 188.745 209.219 189.699 208.77C190.654 208.321 191.612 207.898 192.578 207.486L194.026 206.867C194.515 206.676 194.998 206.468 195.488 206.284C195.022 206.54 194.551 206.778 194.083 207.023L192.666 207.728C191.72 208.198 190.765 208.641 189.81 209.09C188.856 209.54 187.898 209.962 186.931 210.374C185.965 210.786 185.001 211.198 184.022 211.576Z" fill="#DBDBDB"/>
  <path d="M187.691 208.212C188.708 207.599 189.765 207.078 190.828 206.584C191.891 206.09 192.969 205.634 194.076 205.266C192.027 206.457 189.891 207.442 187.691 208.212Z" fill="#DBDBDB"/>
  <path d="M182.611 208.882C183.428 208.433 184.253 208.014 185.082 207.606C185.911 207.197 186.745 206.799 187.583 206.407C188.42 206.015 189.261 205.644 190.111 205.287L191.381 204.749C191.81 204.582 192.233 204.408 192.665 204.248C192.26 204.476 191.846 204.684 191.438 204.905L190.198 205.529C189.369 205.944 188.531 206.332 187.697 206.724C186.862 207.115 186.016 207.486 185.169 207.844C184.322 208.201 183.473 208.562 182.611 208.882Z" fill="#DBDBDB"/>
  <path d="M181.945 207.52C182.698 207.098 183.464 206.71 184.229 206.325C184.995 205.941 185.769 205.58 186.544 205.215C187.319 204.851 188.099 204.507 188.886 204.194L190.066 203.7C190.462 203.547 190.855 203.383 191.266 203.24C190.894 203.455 190.51 203.649 190.132 203.853L188.985 204.436C188.219 204.82 187.445 205.185 186.67 205.546C185.895 205.906 185.115 206.254 184.328 206.567C183.542 206.88 182.746 207.228 181.945 207.52Z" fill="#DBDBDB"/>
  <path d="M178.381 207.493C179.312 206.989 180.257 206.516 181.203 206.053C182.149 205.59 183.103 205.137 184.055 204.691C185.007 204.245 185.97 203.816 186.937 203.404L188.384 202.788C188.871 202.593 189.354 202.389 189.846 202.205C189.381 202.461 188.91 202.696 188.441 202.941L187.021 203.646C186.079 204.115 185.124 204.562 184.169 205.008C183.214 205.454 182.257 205.883 181.29 206.291C180.323 206.7 179.36 207.119 178.381 207.493Z" fill="#DBDBDB"/>
  <path d="M178.264 205.876C179.087 205.423 179.924 205.001 180.762 204.585C181.6 204.17 182.446 203.768 183.293 203.373C184.139 202.978 184.992 202.6 185.848 202.239L187.136 201.695C187.568 201.528 187.997 201.354 188.436 201.187C188.024 201.419 187.607 201.63 187.193 201.868L185.944 202.481C185.106 202.9 184.26 203.295 183.416 203.69C182.572 204.085 181.717 204.463 180.858 204.827C179.999 205.191 179.135 205.552 178.264 205.876Z" fill="#DBDBDB"/>
  <path d="M175.559 205.454C176.493 204.946 177.435 204.476 178.384 204.01C179.333 203.543 180.281 203.097 181.236 202.648C182.191 202.198 183.148 201.776 184.115 201.364L185.565 200.748C186.052 200.554 186.535 200.346 187.024 200.162C186.559 200.418 186.088 200.656 185.619 200.901L184.202 201.606C183.256 202.076 182.302 202.518 181.35 202.968C180.398 203.417 179.435 203.84 178.468 204.252C177.501 204.664 176.538 205.079 175.559 205.454Z" fill="#DBDBDB"/>
  <path d="M178.837 202.27C179.924 201.627 181.041 201.078 182.17 200.551C183.299 200.023 184.44 199.529 185.613 199.148C184.53 199.791 183.41 200.339 182.284 200.867C181.158 201.395 180.011 201.861 178.837 202.27Z" fill="#DBDBDB"/>
  <path d="M54.6545 133.834C59.3211 140.69 67.636 143.457 74.9371 144.178C82.3781 144.891 90.7737 144.279 97.5869 140.498C100.556 138.847 103.331 136.403 105.104 133.184C107.013 129.735 107.293 126.064 105.359 122.748C103.798 120.069 100.327 118.105 100.361 115.685C100.395 113.265 102.16 111.394 102.678 109.079C103.56 105.124 101.727 102.103 99.339 99.4565C93.6882 93.2017 95.3809 85.1667 91.97 77.4781C90.0313 73.1045 84.4781 65.0021 74.2371 68.423C70.3469 69.7269 67.6318 73.7155 65.9858 77.8341C64.0513 82.6984 65.2646 89.1794 62.9228 93.8464C60.9162 97.8254 58.0696 98.4076 56.1351 102.589C55.2866 104.398 54.8624 106.524 56.5169 110.879C57.1108 112.457 57.726 114.848 57.1278 116.696C56.2793 119.255 53.6109 120.376 52.6903 123.042C51.4388 126.732 52.5927 130.808 54.6545 133.834Z" fill="#263238"/>
  <path d="M102.818 134.156C106.322 133.574 107.909 128.094 105.737 125.231C104.362 123.417 102.271 122.546 100.892 120.742C98.6264 117.769 100.731 115.171 102.025 112.322C104.829 106.154 101.197 101.877 97.358 97.9506C94.4393 94.9675 93.8878 91.6092 93.7605 87.303C93.7605 87.2404 93.8581 87.2308 93.8623 87.303C94.0872 90.4737 94.4265 93.5915 96.3186 96.1078C97.8628 98.1527 99.9331 99.572 101.409 101.694C103.908 105.249 104.163 109.06 102.305 113.029C101.77 114.165 100.769 115.435 100.54 116.701C100.005 119.655 101.927 121.218 103.751 122.71C105.151 123.855 106.721 125.116 107.209 127.112C107.972 130.12 105.571 134.132 102.856 134.402C102.725 134.411 102.674 134.204 102.818 134.156Z" fill="#263238"/>
  <path d="M100.87 137.139C103.034 135.696 105.38 134.392 106.678 131.818C108.596 128.012 106.309 125.082 104.171 122.311C103.255 121.127 102.474 119.943 102.563 118.303C102.669 115.834 104.26 113.794 104.561 111.35C105.261 105.524 100.276 101.906 97.7734 97.5801C95.228 93.1632 94.4686 88.0294 93.5947 82.9582C93.5947 82.8524 93.7262 82.8139 93.7432 82.9245C94.8971 89.4055 96.4838 95.4967 100.408 100.549C103.144 104.066 106.059 107.881 104.701 112.88C104.366 114.112 103.717 115.223 103.407 116.45C102.792 118.89 103.348 120.487 104.739 122.263C106.131 124.038 107.628 125.722 107.853 128.118C108.277 132.766 104.205 135.778 101.015 137.505C100.975 137.513 100.934 137.505 100.898 137.483C100.862 137.462 100.834 137.427 100.818 137.385C100.801 137.344 100.797 137.297 100.807 137.252C100.816 137.208 100.839 137.168 100.87 137.139Z" fill="#263238"/>
  <path d="M51.7866 121.594C53.5386 118.789 56.3089 117.413 55.6047 113.381C55.121 110.6 53.8186 108.372 54.332 105.437C54.7562 103.003 56.1222 101.107 57.7258 99.5431C59.7749 97.5223 62.0403 95.8961 63.5421 93.2546C65.1796 90.3678 65.9262 86.9998 66.6941 83.7184C66.6941 83.6559 66.8087 83.68 66.7959 83.7473C65.9856 88.193 64.9972 92.7542 62.036 96.0597C60.4961 97.787 58.6422 99.0909 57.0937 100.833C54.3404 103.974 54.3574 107.434 55.5241 111.384C56.0586 113.203 56.5337 115.021 55.804 116.859C55.0744 118.697 53.5386 119.838 52.4611 121.377C47.8836 127.906 54.858 136.254 60.6403 137.476C60.8991 137.529 60.8694 137.986 60.6021 137.957C56.2749 137.192 51.6932 132.665 50.7642 127.81C50.54 126.751 50.5152 125.649 50.6914 124.578C50.8676 123.507 51.2407 122.49 51.7866 121.594Z" fill="#263238"/>
  <path d="M51.9734 125.101C52.0201 122.161 53.6237 120.545 54.8667 118.245C56.8182 114.627 54.8031 111.028 54.5613 107.227C54.3958 104.566 55.3418 102.31 56.7842 100.366C58.723 97.7485 61.2047 95.8865 62.7914 92.889C64.4648 89.673 65.2701 85.9711 65.1077 82.2414C65.1077 82.1692 65.1968 82.1836 65.201 82.2414C65.5319 87.4762 64.1235 92.3934 61.0563 96.1318C59.1133 98.5039 56.4915 100.462 55.4055 103.628C54.2516 106.996 55.7491 110.099 56.1479 113.467C56.2859 114.459 56.2466 115.473 56.0323 116.447C55.8181 117.422 55.4332 118.338 54.9006 119.14C54.1158 120.396 53.157 121.546 52.7243 123.061C52.1346 125.116 52.5207 127.391 53.2589 129.355C55.5837 135.528 61.2641 139.406 66.6774 140.421C66.8683 140.454 66.8513 140.81 66.6774 140.777C64.2162 140.36 61.8523 139.394 59.7218 137.936C57.5914 136.477 55.7365 134.555 54.2643 132.28C52.9577 130.24 51.931 127.699 51.9734 125.101Z" fill="#263238"/>
  <path d="M73.5698 201.728L123.712 187.009L147.042 200.952L97.992 219.169L73.5698 201.728Z" fill="#4C6ED7"/>
  <path d="M78.468 201.59L99.7629 217.072L143.543 200.611L122.063 187.708C122.063 187.708 108.962 189.659 108.351 189.872C107.74 190.085 101.962 192.801 101.962 192.801C101.962 192.801 93.8562 194.381 93.3046 194.606C92.753 194.831 78.468 201.59 78.468 201.59Z" fill="#F7F7F7"/>
  <path d="M100.039 190.503L103.2 192.826L106.339 195.179L112.592 199.938L118.803 204.763L121.896 207.203L124.967 209.671L121.806 207.347L118.667 204.994L112.414 200.236L106.203 195.41L103.111 192.971L100.039 190.503Z" fill="#DBDBDB"/>
  <path d="M104.981 204.253C105.651 204.003 106.335 203.772 107.018 203.589C107.701 203.407 108.388 203.2 109.075 203.017C109.762 202.834 110.458 202.671 111.154 202.536C111.85 202.401 112.545 202.242 113.25 202.136C112.575 202.387 111.892 202.618 111.209 202.805C110.526 202.993 109.839 203.195 109.151 203.373C108.464 203.551 107.777 203.719 107.081 203.854C106.385 203.989 105.69 204.148 104.981 204.253Z" fill="#DBDBDB"/>
  <path d="M93.1113 212.11C94.8634 211.148 96.6325 210.248 98.4015 209.349C100.171 208.449 101.952 207.573 103.734 206.693C104.621 206.25 105.52 205.836 106.424 205.427C106.656 205.323 106.896 205.243 107.141 205.187L107.853 204.999L109.275 204.638C111.175 204.186 113.093 203.743 114.985 203.349C113.105 203.902 111.218 204.412 109.33 204.932L107.917 205.312C107.448 205.419 106.986 205.562 106.534 205.74C105.639 206.149 104.748 206.597 103.853 207.02L98.4948 209.594C96.7046 210.446 94.9143 211.293 93.1113 212.11Z" fill="#DBDBDB"/>
  <path d="M94.9226 213.458C96.6195 212.524 98.3278 211.613 100.047 210.725C101.744 209.82 103.488 208.964 105.21 208.088C106.059 207.655 106.927 207.233 107.815 206.823C108.036 206.722 108.239 206.621 108.485 206.524C108.731 206.428 108.952 206.39 109.181 206.327L110.564 205.971C112.409 205.528 114.259 205.1 116.117 204.725C114.289 205.269 112.456 205.764 110.602 206.269L109.228 206.645C108.999 206.707 108.765 206.765 108.553 206.847C108.341 206.929 108.129 207.039 107.908 207.14L105.312 208.411C103.577 209.253 101.855 210.128 100.119 210.961C98.3843 211.793 96.6704 212.63 94.9226 213.458Z" fill="#DBDBDB"/>
  <path d="M96.7214 214.555C98.4523 213.693 100.196 212.866 101.944 212.048C103.692 211.23 105.448 210.436 107.204 209.642C108.087 209.253 108.952 208.853 109.868 208.507L112.6 207.641C114.425 207.083 116.249 206.524 118.09 206.014C116.291 206.688 114.484 207.309 112.673 207.939L109.953 208.844C109.079 209.18 108.197 209.599 107.315 209.974C105.55 210.739 103.798 211.543 102.029 212.298C100.26 213.054 98.499 213.838 96.7214 214.555Z" fill="#DBDBDB"/>
  <path d="M122.782 204.807C124.394 203.915 126.027 203.088 127.682 202.324C128.106 202.132 128.509 201.934 128.929 201.756C129.141 201.67 129.353 201.583 129.578 201.506L130.227 201.314L132.819 200.529C134.542 200.005 136.277 199.509 138.008 198.999C139.739 198.489 141.469 198.003 143.209 197.518C141.491 198.09 139.777 198.658 138.054 199.202C136.332 199.745 134.614 200.308 132.887 200.837L130.304 201.636L129.659 201.838C129.459 201.91 129.235 202.002 129.039 202.093L127.792 202.637C126.133 203.383 124.47 204.124 122.782 204.807Z" fill="#DBDBDB"/>
  <path d="M121.034 203.253C122.635 202.489 124.249 201.779 125.875 201.121C126.694 200.794 127.5 200.448 128.348 200.193L130.851 199.418C132.518 198.898 134.194 198.403 135.866 197.898C137.537 197.392 139.213 196.911 140.893 196.43C139.234 196.998 137.58 197.561 135.917 198.105C134.254 198.648 132.591 199.202 130.923 199.726L128.429 200.525C128.005 200.65 127.614 200.813 127.203 200.967L125.972 201.448C124.341 202.084 122.695 202.685 121.034 203.253Z" fill="#DBDBDB"/>
  <path d="M119.346 201.872C120.937 201.126 122.54 200.428 124.161 199.774C124.971 199.452 125.773 199.11 126.604 198.812L129.112 198.114C130.783 197.633 132.455 197.214 134.13 196.772C135.806 196.329 137.477 195.901 139.157 195.482C137.499 195.992 135.84 196.497 134.177 196.983C132.514 197.469 130.851 197.946 129.184 198.427C128.335 198.667 127.512 198.908 126.689 199.144L124.254 200.063C122.628 200.707 120.992 201.31 119.346 201.872Z" fill="#DBDBDB"/>
  <path d="M117.904 200.847C119.431 199.914 120.996 199.096 122.596 198.335C122.795 198.239 122.994 198.148 123.202 198.066C123.412 197.983 123.626 197.916 123.843 197.864L125.116 197.551L127.661 196.94C131.055 196.142 134.449 195.362 137.843 194.631C134.483 195.53 131.11 196.387 127.742 197.243L125.196 197.874L123.923 198.196C123.511 198.315 123.109 198.476 122.723 198.677C121.111 199.384 119.528 200.173 117.904 200.847Z" fill="#DBDBDB"/>
  <path d="M116.321 199.601C117.848 198.667 119.414 197.85 121.013 197.085C121.212 196.988 121.412 196.902 121.62 196.82C121.83 196.734 122.045 196.667 122.265 196.618L123.537 196.305L126.083 195.694C129.477 194.895 132.849 194.111 136.243 193.38C132.883 194.284 129.51 195.141 126.142 195.997L123.597 196.627L122.324 196.95C121.912 197.069 121.51 197.23 121.123 197.431C119.528 198.138 117.946 198.922 116.321 199.601Z" fill="#DBDBDB"/>
  <path d="M114.739 198.35C116.266 197.421 117.831 196.603 119.431 195.838C119.63 195.742 119.829 195.656 120.037 195.574C120.247 195.488 120.463 195.42 120.682 195.372L121.955 195.059L124.5 194.443C127.894 193.644 131.267 192.865 134.661 192.134C131.301 193.038 127.928 193.895 124.56 194.746L122.014 195.381L120.741 195.704C120.33 195.825 119.928 195.986 119.541 196.185C117.946 196.892 116.363 197.676 114.739 198.35Z" fill="#DBDBDB"/>
  <path d="M113.156 197.104C114.684 196.175 116.249 195.352 117.849 194.592C118.048 194.496 118.247 194.405 118.455 194.323C118.665 194.239 118.881 194.173 119.1 194.125L120.373 193.808L122.918 193.197C126.312 192.398 129.706 191.619 133.1 190.887C129.74 191.792 126.367 192.648 122.999 193.5L120.453 194.135L119.181 194.457C118.768 194.575 118.366 194.736 117.98 194.939C116.364 195.646 114.798 196.43 113.156 197.104Z" fill="#DBDBDB"/>
  <path d="M111.116 196.103C112.643 195.17 114.208 194.352 115.808 193.587C116.007 193.495 116.207 193.404 116.414 193.322C116.625 193.238 116.841 193.171 117.059 193.12L118.332 192.807L120.877 192.196C124.271 191.397 127.665 190.618 131.059 189.887C127.699 190.786 124.326 191.643 120.958 192.499L118.413 193.129L117.14 193.452C116.728 193.572 116.326 193.733 115.939 193.933C114.323 194.64 112.741 195.429 111.116 196.103Z" fill="#DBDBDB"/>
  <path d="M109.13 195.112C110.658 194.178 112.223 193.36 113.822 192.595C114.022 192.499 114.221 192.413 114.429 192.331C114.639 192.245 114.855 192.178 115.074 192.129L116.347 191.816L118.892 191.205C122.286 190.406 125.658 189.622 129.052 188.896C125.692 189.795 122.32 190.652 118.951 191.508L116.406 192.138L115.133 192.461C114.721 192.58 114.32 192.741 113.933 192.942C112.338 193.649 110.755 194.438 109.13 195.112Z" fill="#DBDBDB"/>
  <path d="M107.548 193.866C109.071 192.932 110.636 192.114 112.214 191.354C112.414 191.258 112.613 191.167 112.821 191.09C113.031 191.002 113.246 190.934 113.466 190.887L114.739 190.599L117.284 190.036C120.678 189.305 124.072 188.592 127.466 187.938C124.093 188.77 120.716 189.555 117.339 190.344L114.794 190.926L113.521 191.224C113.11 191.343 112.71 191.504 112.325 191.705C110.751 192.422 109.173 193.187 107.548 193.866Z" fill="#DBDBDB"/>
  <path d="M105.966 192.615C107.489 191.686 109.05 190.868 110.632 190.108C110.832 190.012 111.031 189.925 111.239 189.843C111.448 189.756 111.664 189.69 111.884 189.646L113.156 189.381L115.702 188.876C119.096 188.227 122.489 187.596 125.883 187.024C122.489 187.774 119.117 188.467 115.731 189.179L113.186 189.704L111.913 189.978C111.503 190.093 111.104 190.254 110.721 190.459C109.164 191.162 107.586 191.941 105.966 192.615Z" fill="#DBDBDB"/>
  <path d="M104.383 191.369C105.902 190.445 107.463 189.627 109.05 188.867C109.249 188.77 109.448 188.679 109.656 188.602C109.865 188.512 110.081 188.445 110.301 188.405L111.574 188.183L114.119 187.77C115.816 187.5 117.513 187.264 119.231 187.014C120.949 186.764 122.625 186.533 124.347 186.321C120.954 186.932 117.56 187.5 114.166 188.078L111.62 188.511L110.348 188.742C109.939 188.846 109.541 188.997 109.16 189.194C107.586 189.916 106.004 190.695 104.383 191.369Z" fill="#DBDBDB"/>
  <path d="M98.5583 216.311C100.327 215.493 102.109 214.714 103.895 213.939C105.681 213.164 107.476 212.423 109.266 211.668C110.165 211.293 111.056 210.932 111.977 210.585L114.722 209.647C116.554 209.046 118.387 208.439 120.237 207.877C118.429 208.593 116.614 209.262 114.794 209.931L112.062 210.893C111.171 211.235 110.271 211.629 109.372 211.985L103.976 214.175C102.173 214.911 100.374 215.623 98.5583 216.311Z" fill="#DBDBDB"/>
  <path d="M124.089 206.327C125.879 205.553 127.682 204.812 129.485 204.08C131.288 203.349 133.108 202.637 134.92 201.934C135.827 201.578 136.727 201.242 137.66 200.914L140.43 200.044C142.28 199.481 144.13 198.918 145.992 198.398C144.168 199.072 142.335 199.702 140.498 200.323L137.736 201.237C136.837 201.554 135.925 201.93 135.017 202.266L129.561 204.33C127.742 205.014 125.917 205.687 124.089 206.327Z" fill="#DBDBDB"/>
  <path d="M76.477 121.214C79.3533 131.154 95.4911 156.053 104.65 157.578C110.624 158.569 132.365 153.647 137.405 150.611C143.306 147.06 134.86 126.675 130.97 127.343C125.769 128.238 112.443 134.334 107.981 134.522C105.414 134.633 92.9203 122.696 81.0333 111.61C76.4303 107.333 74.7588 115.296 76.477 121.214Z" fill="#FFD5CE"/>
  <path d="M136.71 124.582C139.857 124.481 143.455 124.076 146.573 125.289C149.691 126.501 150.964 132.145 150.582 133.492C150.2 134.839 146.637 142.793 143.497 141.648C140.358 140.503 144.083 134.753 144.176 133.949C144.269 133.146 144.418 132.179 143.803 132.025C143.188 131.871 131.254 133.723 131.254 133.723L136.71 124.582Z" fill="#FFD5CE"/>
  <path d="M136.773 125.154C136.951 125.217 146.42 124.529 149.538 125.736C152.656 126.944 153.929 132.597 153.547 133.916C153.165 135.234 149.602 143.221 146.467 142.095C143.332 140.969 147.052 135.196 147.141 134.397C147.23 133.598 147.383 132.626 146.772 132.472C146.161 132.318 134.219 134.123 134.219 134.123L136.773 125.154Z" fill="#FFD5CE"/>
  <path d="M145.53 141.258C145.301 140.555 145.474 139.685 145.602 138.968C145.752 138.184 146.008 137.43 146.361 136.735C146.717 136.159 147.031 135.551 147.299 134.916C147.48 134.256 147.512 133.555 147.392 132.876C147.294 132.289 146.785 132.294 146.344 132.309C145.688 132.346 145.035 132.43 144.388 132.559C143.693 132.679 143.001 132.814 142.31 132.944C141.586 133.053 140.869 133.214 140.163 133.425C140.112 133.425 140.116 133.54 140.163 133.536C140.773 133.495 141.38 133.418 141.983 133.305C142.67 133.204 143.358 133.112 144.045 133.026C144.732 132.939 145.317 132.833 145.967 132.766C146.265 132.684 146.576 132.684 146.874 132.766C147.095 132.915 147.023 133.627 147.014 133.863C146.966 134.549 146.738 135.204 146.361 135.744C146.017 136.321 145.722 136.935 145.483 137.577C145.25 138.186 145.117 138.838 145.088 139.502C145.129 140.115 145.235 140.721 145.402 141.306C145.432 141.378 145.555 141.34 145.53 141.258Z" fill="#263238"/>
  <path d="M124.174 130.86C124.174 130.86 135.416 125.048 137.749 123.922C142.394 121.666 159.695 120.165 161.896 120.684C164.098 121.204 163.466 126.458 151.626 127.8C145.389 128.517 143.408 131.717 142.95 133.723C142.492 135.73 143.116 140.007 146.06 140.979C149.004 141.951 152.271 137.813 155.104 138.256C157.938 138.698 154.587 143.63 151.778 146.161C148.97 148.692 144.762 150.082 141.949 150.246C139.136 150.409 130.223 151.367 130.223 151.367L124.174 130.86Z" fill="#FFD5CE"/>
  <path d="M150.327 139.978C148.953 140.546 147.358 141.34 145.886 140.873C144.414 140.406 143.714 138.948 143.412 137.298C143.111 135.648 143.154 133.93 143.943 132.443C144.687 131.136 145.748 130.099 146.997 129.456C148.526 128.683 150.145 128.164 151.804 127.916C151.876 127.916 151.85 127.776 151.774 127.786C150.238 127.978 145.508 128.392 143.485 132.275C142.657 133.858 142.679 135.552 142.976 137.236C143.247 138.79 143.824 140.406 145.207 141.051C146.904 141.84 148.821 140.791 150.4 140.055C150.467 140.021 150.4 139.944 150.327 139.978Z" fill="#263238"/>
  <path d="M100.374 128.354C100.374 128.354 96.276 132.843 92.5555 136.928C89.6283 140.166 86.9259 143.149 86.6714 143.495C82.9658 136.994 79.7527 130.149 77.0667 123.032C73.4947 113.337 76.4728 108.848 80.4988 110.33C81.1108 110.563 81.6929 110.886 82.2297 111.293C87.0362 114.911 100.374 128.354 100.374 128.354Z" fill="#4C6ED7"/>
  <path d="M75.8663 119.044C75.8663 119.127 75.8447 119.207 75.8041 119.276C75.7636 119.345 75.7059 119.399 75.6385 119.43C75.5711 119.462 75.4969 119.47 75.4253 119.454C75.3537 119.438 75.2879 119.398 75.2363 119.34C75.1847 119.281 75.1495 119.207 75.1353 119.125C75.121 119.044 75.1283 118.96 75.1563 118.884C75.1842 118.807 75.2315 118.742 75.2922 118.696C75.3529 118.65 75.4243 118.625 75.4973 118.625C75.5951 118.625 75.689 118.669 75.7582 118.748C75.8275 118.826 75.8663 118.933 75.8663 119.044Z" fill="white"/>
  <path d="M81.1692 118.625C81.0964 118.626 81.0255 118.651 80.9654 118.698C80.9052 118.745 80.8586 118.81 80.8313 118.887C80.804 118.963 80.7973 119.047 80.812 119.128C80.8267 119.209 80.8622 119.283 80.914 119.341C80.9658 119.399 81.0316 119.439 81.103 119.455C81.1745 119.47 81.2485 119.462 81.3157 119.43C81.3829 119.398 81.4403 119.345 81.4807 119.276C81.521 119.207 81.5426 119.126 81.5426 119.044C81.5426 118.988 81.5329 118.934 81.5141 118.882C81.4953 118.831 81.4677 118.785 81.433 118.746C81.3983 118.707 81.3571 118.676 81.3118 118.656C81.2665 118.635 81.2181 118.624 81.1692 118.625Z" fill="white"/>
  <path d="M86.8455 118.625C86.7725 118.625 86.7011 118.65 86.6404 118.696C86.5797 118.742 86.5324 118.807 86.5045 118.884C86.4766 118.96 86.4693 119.044 86.4835 119.125C86.4977 119.207 86.5329 119.281 86.5845 119.34C86.6361 119.398 86.7019 119.438 86.7735 119.454C86.8451 119.47 86.9193 119.462 86.9867 119.43C87.0542 119.399 87.1118 119.345 87.1524 119.276C87.1929 119.207 87.2146 119.127 87.2146 119.044C87.2146 118.933 87.1757 118.826 87.1065 118.748C87.0373 118.669 86.9434 118.625 86.8455 118.625Z" fill="white"/>
  <path d="M93.8368 135.523L92.5641 136.928C89.6368 140.166 86.9302 143.149 86.6799 143.495C82.9743 136.994 79.7613 130.149 77.0753 123.032C76.8674 122.465 76.6765 121.911 76.5111 121.372C76.422 121.084 76.3371 120.8 76.2608 120.521C74.0548 112.568 76.8462 108.973 80.5031 110.33L80.5795 110.364L93.8368 135.523Z" fill="#263238"/>
  <path d="M89.3439 174.187L88.1349 151.227C88.1349 151.227 93.582 144.395 92.3772 138.236C91.7706 135.109 82.3738 111.355 81.4532 110.378C77.7497 106.467 71.5007 108.026 68.9383 110.224C54.735 122.397 44.7274 148.518 39.925 174.216L89.3439 174.187Z" fill="#4C6ED7"/>
  <path d="M88.114 151.227L89.3443 174.187H39.8999C44.7022 148.509 54.7099 122.388 68.9132 110.196C69.4687 109.732 70.0729 109.349 70.7119 109.055C73.741 107.612 78.4245 107.174 81.4281 110.35C82.3487 111.312 91.7454 135.08 92.3521 138.208C93.5611 144.395 88.114 151.227 88.114 151.227Z" fill="#4C6ED7"/>
  <path d="M81.9794 110.172C81.9794 110.172 82.4969 118.553 81.1521 118.726C77.0158 119.26 72.2899 112.9 72.0184 111.884C71.9505 111.625 72.1669 105.1 72.345 100.029C72.4596 96.767 72.5614 94.1063 72.5614 94.1063L83.2733 100.741L82.0685 109.541L81.9794 110.172Z" fill="#FFD5CE"/>
  <path d="M83.2732 100.741L82.0684 109.541C79.9506 108.821 77.9903 107.603 76.315 105.967C74.6397 104.33 73.287 102.312 72.345 100.044C72.4595 96.7814 72.5613 94.1207 72.5613 94.1207L73.9104 94.8905L83.2732 100.741Z" fill="#263238"/>
  <path d="M93.1199 87.1778C94.6769 102.709 86.6504 105.519 83.6977 105.899C81.0166 106.241 71.8489 107.02 68.8878 91.7535C65.9266 76.4869 71.798 70.7565 77.8942 69.621C83.9904 68.4856 91.563 71.6563 93.1199 87.1778Z" fill="#FFD5CE"/>
  <path d="M66.6392 93.0574L66.1089 92.812C66.2107 92.5329 67.1271 90.0502 68.387 89.6798C69.5664 89.3382 77.2959 89.3478 77.6395 89.3478V90.0021C75.4208 90.0021 69.4476 90.0454 68.5355 90.3101C67.7082 90.5554 66.8852 92.3789 66.6392 93.0574Z" fill="#4C6ED7"/>
  <path d="M71.1827 92.6676C71.1827 92.6676 68.0603 87.8803 66.1385 89.1553C64.2168 90.4303 66.6434 97.4309 68.9554 98.3306C69.2452 98.4691 69.5567 98.5397 69.8711 98.538C70.1856 98.5363 70.4964 98.4625 70.785 98.3208C71.0736 98.1792 71.3339 97.9728 71.5503 97.714C71.7666 97.4552 71.9345 97.1494 72.0439 96.815L71.1827 92.6676Z" fill="#FFD5CE"/>
  <path d="M58.8926 117.316C41.6348 132.054 19.8589 170.651 23.1637 180.225C26.18 188.968 52.6818 197.753 68.2851 200.169C71.2548 200.65 73.3377 171.897 70.1772 171.267C64.5307 170.146 51.7273 163.91 51.3498 163.804C50.5395 163.578 63.9749 130.716 68.4209 120.429C74.6147 106.096 66.4355 110.864 58.8926 117.316Z" fill="#FFD5CE"/>
  <path d="M70.7118 109.074L57.2891 174.187H39.8955C44.6978 148.509 54.7055 122.388 68.9088 110.196C69.4665 109.739 70.0722 109.362 70.7118 109.074Z" fill="#263238"/>
  <path d="M87.2612 162.491C87.2612 162.491 84.9916 157.424 88.1606 155.947C91.3296 154.47 92.8568 159.888 92.8568 159.888L87.2612 162.491Z" fill="#455A64"/>
  <path d="M106.161 196.651L105.707 202.189L105.567 204.018L104.319 202.839L100.565 199.254L87.189 162.284L92.7846 159.681L106.161 196.656V196.651Z" fill="#455A64"/>
  <path d="M105.711 202.194L105.567 204.023L104.32 202.844L105.711 202.194Z" fill="#37474F"/>
  <path d="M93.1717 159.266L86.6409 162.305L87.1723 163.774L93.7031 160.735L93.1717 159.266Z" fill="#37474F"/>
  <path d="M93.7605 160.892L87.2297 163.931L87.7612 165.4L94.292 162.361L93.7605 160.892Z" fill="#37474F"/>
  <path d="M87.7659 165.397L89.8743 164.415L93.5524 178.33L92.7548 178.642L87.7659 165.397Z" fill="#37474F"/>
  <path d="M49.5554 211.969H13.021V217.196H49.5554V211.969Z" fill="#37474F"/>
  <path d="M21.6759 211.969H20.1868V217.196H21.6759V211.969Z" fill="#455A64"/>
  <path d="M45.2571 211.969H41.688V217.196H45.2571V211.969Z" fill="#455A64"/>
  <path d="M49.5554 189.942H13.021V196.682H49.5554V189.942Z" fill="#4C6ED7"/>
  <path d="M25.2762 189.942H16.0959V196.682H25.2762V189.942Z" fill="#455A64"/>
  <path d="M23.5521 190.883H17.8235V192.066H23.5521V190.883Z" fill="#4C6ED7"/>
  <path d="M23.5521 192.721H17.8235V193.904H23.5521V192.721Z" fill="#4C6ED7"/>
  <path d="M23.5521 194.555H17.8235V195.738H23.5521V194.555Z" fill="#4C6ED7"/>
  <path d="M46.9224 196.678H9.60718V203.587H46.9224V196.678Z" fill="#37474F"/>
  <path d="M40.3232 198.92H31.3606V201.345H40.3232V198.92Z" fill="#4C6ED7"/>
  <path d="M44.8182 200.138C44.8182 200.404 44.7487 200.664 44.6185 200.885C44.4883 201.106 44.3032 201.279 44.0866 201.38C43.8701 201.482 43.6318 201.509 43.4019 201.457C43.172 201.405 42.9608 201.277 42.7951 201.089C42.6294 200.901 42.5165 200.661 42.4708 200.401C42.425 200.14 42.4485 199.87 42.5382 199.624C42.6279 199.379 42.7798 199.169 42.9747 199.021C43.1696 198.873 43.3987 198.794 43.6331 198.794C43.9474 198.794 44.2488 198.936 44.4711 199.188C44.6933 199.44 44.8182 199.782 44.8182 200.138Z" fill="#4C6ED7"/>
  <path d="M30.089 183.845H11.2379V189.946H30.089V183.845Z" fill="#263238"/>
  <path d="M47.5168 183.845H30.0892V189.946H47.5168V183.845Z" fill="#263238"/>
  <path d="M30.089 184.476H11.2379V189.312H30.089V184.476Z" fill="white"/>
  <path d="M36.4049 183.845H33.9518V189.946H36.4049V183.845Z" fill="#455A64"/>
  <path d="M46.6149 183.845H44.9669V189.946H46.6149V183.845Z" fill="#455A64"/>
  <path d="M24.1565 211.969H45.3882V203.587H24.1565V211.969Z" fill="#4C6ED7"/>
  <path d="M8.03518 211.969H24.1567V203.587H8.03518V211.969Z" fill="#4C6ED7"/>
  <path d="M24.1565 211.099H45.3882V204.457H24.1565V211.099Z" fill="white"/>
  <path d="M13.6186 203.583H10.6023V211.965H13.6186V203.583Z" fill="#455A64"/>
</svg>